<svg width="24" height="24" viewBox="0 0 24 24" fill="none" xmlns="http://www.w3.org/2000/svg">
<path d="M11.979 0C5.678 0 .511 4.86.022 11.037l6.432 2.658c.545-.371 1.203-.59 1.912-.59.063 0 .125.004.188.006l2.861-4.142V8.91c0-2.495 2.028-4.524 4.524-4.524 2.494 0 4.524 2.031 4.524 4.527s-2.03 4.525-4.524 4.525h-.105l-4.076 2.911c0 .052.004.105.004.159 0 1.875-1.515 3.396-3.39 3.396-1.635 0-3.016-1.173-3.331-2.727L.436 15.27C1.862 20.307 6.486 24 11.979 24c6.624 0 11.999-5.375 11.999-12S18.603.001 11.979.001zM7.54 18.21l-1.473-.61c.262.543.714.999 1.314 1.25 1.297.539 2.793-.076 3.332-1.375.263-.63.264-1.319.005-1.949s-.75-1.121-1.377-1.383c-.624-.26-1.29-.249-1.878-.03l1.523.63c.956.4 1.409 1.5 1.009 2.456-.397.956-1.497 1.41-2.455 1.011zm8.555-11.205c0-1.663-1.354-3.015-3.015-3.015-1.665 0-3.015 1.352-3.015 3.015 0 1.664 1.35 3.015 3.015 3.015 1.661 0 3.015-1.351 3.015-3.015zm-5.318-.001c0-1.275 1.04-2.312 2.303-2.312 1.275 0 2.315 1.037 2.315 2.312s-1.04 2.312-2.315 2.312c-1.263 0-2.303-1.037-2.303-2.312z" fill="currentColor"/>
</svg>
